<?xml version="1.0" standalone="no"?>
<!DOCTYPE svg PUBLIC "-//W3C//DTD SVG 20010904//EN"
 "http://www.w3.org/TR/2001/REC-SVG-20010904/DTD/svg10.dtd">
<svg version="1.0" xmlns="http://www.w3.org/2000/svg"
 width="512.000000pt" height="512.000000pt" viewBox="0 0 512.000000 512.000000"
 preserveAspectRatio="xMidYMid meet">
<metadata>
Created by potrace 1.14, written by Peter Selinger 2001-2017
</metadata>
<g transform="translate(0.000000,512.000000) scale(0.100000,-0.100000)"
fill="#000000" stroke="none">
<path d="M2535 4958 c-60 -3 -135 -13 -165 -22 -250 -72 -276 -82 -378 -145
-117 -72 -250 -192 -315 -284 -44 -62 -97 -160 -97 -179 0 -5 -16 -37 -36 -71
-19 -33 -42 -90 -51 -126 -8 -36 -25 -102 -38 -146 -74 -246 -78 -279 -78
-595 0 -246 9 -388 29 -459 6 -21 5 -22 -15 -12 -28 15 -85 4 -107 -20 -16
-18 -16 -19 4 -19 27 0 82 -32 82 -47 0 -21 40 -55 57 -49 13 5 14 -5 9 -76
-8 -94 -21 -196 -38 -281 -11 -57 -3 -108 23 -159 13 -25 11 -38 -3 -36 -7 2
-14 -4 -14 -12 -3 -32 -5 -34 -14 -20 -11 18 -16 6 -23 -57 -6 -53 9 -65 35
-30 11 15 23 27 28 27 9 0 26 -94 22 -125 -2 -11 2 -29 7 -40 14 -30 31 -109
32 -152 0 -21 3 -32 6 -24 3 8 0 62 -8 120 -7 58 -13 158 -14 221 -1 63 -8
160 -14 215 -14 120 -7 260 20 375 20 86 45 271 56 415 3 44 10 83 16 86 5 4
7 18 4 31 -8 30 1 42 20 27 10 -9 13 -7 13 9 0 12 4 23 9 26 8 5 18 41 28 96
2 14 8 27 14 28 5 2 7 7 5 11 -3 4 -1 13 4 21 7 12 12 12 22 2 6 -6 16 -12 22
-12 5 0 6 3 3 7 -8 7 71 63 89 63 7 0 9 10 6 25 -2 14 -8 23 -12 20 -6 -4 -7
7 -1 66 1 4 14 9 31 11 20 3 30 0 32 -11 3 -12 6 -12 21 3 16 17 17 17 17 0 0
-14 7 -10 32 15 28 28 33 30 38 15 5 -13 10 -10 23 19 9 19 17 46 17 59 0 14
9 35 20 48 11 13 20 27 20 31 0 5 6 6 14 3 9 -3 17 3 21 15 8 27 40 44 65 36
15 -5 23 0 31 18 8 18 18 23 40 22 16 -1 29 2 29 7 0 4 5 8 11 8 6 0 9 -6 6
-14 -3 -8 1 -20 10 -28 14 -11 15 -10 9 9 -4 12 -2 24 4 28 6 4 10 -6 10 -24
0 -17 3 -31 6 -31 9 0 43 44 44 57 0 20 22 27 35 10 9 -13 13 -12 30 14 21 31
40 37 48 17 4 -10 8 -9 16 2 9 13 12 13 20 1 7 -11 11 -10 22 6 7 13 19 18 31
15 10 -2 18 0 18 6 0 6 25 9 60 8 51 -1 60 1 60 16 0 11 5 15 14 12 8 -3 16 3
19 16 5 18 9 20 26 10 15 -7 21 -7 21 0 0 7 6 8 18 2 31 -16 110 -23 115 -9 3
7 6 5 6 -5 1 -22 38 -43 44 -25 3 9 11 9 38 -1 22 -8 35 -9 37 -2 2 6 9 7 15
3 6 -4 8 0 4 10 -3 9 1 18 11 22 9 3 18 2 20 -4 2 -5 9 -8 17 -5 7 3 16 0 20
-6 5 -8 13 -7 29 4 46 29 112 19 122 -20 3 -13 10 -22 14 -19 4 3 11 -2 14
-11 4 -11 14 -13 41 -8 34 6 35 5 35 -23 0 -36 16 -53 50 -53 30 0 59 -29 79
-77 13 -31 31 -45 31 -23 0 6 6 10 14 10 16 0 39 -81 29 -106 -3 -10 -2 -15 3
-12 5 3 10 -12 11 -34 2 -24 10 -46 20 -55 10 -8 12 -12 6 -8 -15 7 -18 -21
-3 -30 6 -3 10 -19 10 -35 0 -16 5 -32 10 -35 6 -4 8 -11 5 -16 -4 -5 1 -35 9
-67 18 -72 21 -157 11 -345 -8 -140 -2 -226 25 -417 l8 -55 0 50 c-1 51 41
155 62 155 6 0 10 5 10 10 0 6 -7 10 -15 10 -13 0 -15 8 -10 38 4 20 10 48 15
62 7 22 12 71 26 260 1 25 9 83 16 130 7 47 12 148 12 225 -1 115 -5 151 -22
201 -23 68 -46 164 -57 239 -4 28 -10 55 -13 60 -12 18 -32 80 -32 100 0 11
-6 30 -13 41 -6 12 -22 39 -34 60 -12 22 -35 54 -51 73 -17 18 -37 56 -46 83
-9 27 -32 68 -51 91 -19 22 -35 45 -35 51 0 6 -14 29 -30 50 -17 22 -30 47
-30 57 0 10 -4 21 -10 24 -5 3 -10 14 -10 24 0 10 -12 28 -26 42 l-26 24 8
-29 7 -30 -28 22 c-15 12 -34 22 -41 22 -8 0 -14 7 -14 15 0 8 -6 15 -13 15
-7 0 -28 16 -47 35 -25 25 -43 35 -65 35 -18 0 -35 3 -38 6 -18 19 -118 50
-145 46 -18 -2 -40 2 -52 11 -16 11 -30 13 -52 6 -22 -6 -40 -4 -62 6 -41 18
-90 21 -221 13z m335 -874 c0 -8 -4 -12 -10 -9 -5 3 -10 10 -10 16 0 5 5 9 10
9 6 0 10 -7 10 -16z m-976 -361 c-10 -40 -14 -41 -14 -5 0 18 5 32 10 32 6 0
8 -11 4 -27z m-468 -1550 c-10 -10 -19 5 -10 18 6 11 8 11 12 0 2 -7 1 -15 -2
-18z"/>
<path d="M1935 3330 c-3 -6 -22 -9 -42 -8 -25 2 -40 -4 -52 -17 -24 -29 -78
-65 -95 -65 -9 0 -22 -13 -31 -30 -9 -16 -20 -30 -25 -30 -6 0 -10 -8 -10 -18
0 -10 -9 -25 -20 -35 -17 -14 -19 -25 -15 -69 3 -29 10 -57 15 -62 18 -18 112
13 140 47 19 22 36 30 65 33 22 2 64 5 93 8 29 3 52 1 52 -5 0 -5 9 -9 19 -9
10 0 22 -7 25 -16 5 -13 9 -14 21 -4 20 17 32 4 19 -18 -7 -11 -25 -17 -50
-18 -21 0 -56 -6 -76 -13 -20 -7 -49 -14 -64 -17 -15 -3 -47 -14 -70 -24 -24
-11 -47 -20 -53 -20 -15 0 -91 -75 -107 -105 -8 -15 -14 -37 -14 -49 0 -12 -9
-25 -22 -31 -16 -7 -22 -17 -21 -35 1 -14 0 -19 -3 -12 -9 19 -24 4 -24 -24 0
-14 4 -22 10 -19 6 3 10 -1 10 -9 0 -9 -7 -16 -15 -16 -8 0 -15 -5 -15 -11 0
-6 7 -9 15 -5 8 3 15 0 15 -7 0 -8 14 -13 40 -12 22 0 40 4 40 8 0 5 10 5 21
2 12 -4 32 -1 46 6 20 11 26 11 33 -1 7 -12 10 -12 16 3 3 9 4 27 0 40 -4 18
1 27 24 41 17 9 30 21 30 26 0 10 58 8 125 -4 45 -9 88 -35 68 -43 -7 -3 -13
-14 -13 -26 0 -18 2 -19 11 -7 8 11 12 12 16 2 2 -6 9 -10 14 -6 14 8 49 -6
49 -19 0 -22 36 -47 49 -34 8 8 11 6 11 -6 0 -16 2 -16 24 -2 23 15 25 15 35
-2 8 -15 13 -16 30 -5 29 17 31 15 18 -13 -7 -14 -18 -25 -25 -25 -23 0 -36
-45 -21 -71 l14 -24 3 23 c2 15 9 22 17 18 30 -11 111 51 115 89 0 3 0 6 1 8
0 1 2 15 3 30 1 16 8 32 16 37 24 15 19 164 -6 191 -10 11 -20 37 -21 57 -2
20 -5 56 -9 79 -5 38 -4 42 17 45 29 4 49 60 31 89 -6 10 -9 26 -5 35 3 9 1
19 -6 23 -7 4 -13 20 -15 35 -1 14 -6 26 -11 25 -4 0 -12 5 -16 13 -7 10 -9
10 -9 -2 0 -9 -5 -7 -16 8 -13 18 -19 21 -30 11 -11 -9 -23 -8 -52 4 -20 8
-44 16 -52 16 -8 0 -40 5 -70 11 -30 7 -72 12 -92 12 -21 0 -38 3 -38 8 0 4
-10 10 -22 13 -13 2 -30 8 -39 11 -10 4 -20 2 -24 -4z m22 -527 c-7 -6 -87 28
-87 37 0 5 12 12 28 18 24 8 29 5 45 -21 10 -16 16 -31 14 -34z m208 53 c25
-18 13 -46 -20 -46 -27 0 -28 3 -19 38 7 26 13 27 39 8z"/>
<path d="M3065 3237 c-44 -7 -123 -10 -143 -5 -4 1 -25 -2 -48 -6 -34 -6 -42
-12 -53 -42 -7 -19 -26 -49 -43 -66 -17 -17 -27 -36 -24 -45 3 -8 6 -25 6 -38
0 -18 7 -24 37 -30 53 -10 55 -12 33 -48 -24 -39 -25 -82 -4 -132 8 -20 13
-40 10 -42 -3 -3 17 -38 44 -77 50 -72 94 -110 142 -121 21 -5 27 -3 33 15 4
12 25 29 48 40 23 10 61 37 84 59 42 39 43 39 105 35 35 -2 83 -1 108 4 39 6
45 11 48 35 4 37 -29 88 -78 121 -22 14 -40 31 -40 37 0 6 -8 9 -17 8 -28 -4
-173 28 -223 48 -8 3 -19 5 -24 4 -18 -4 -23 22 -10 48 10 21 26 30 66 41 52
13 82 14 200 7 61 -4 98 -26 98 -59 0 -18 57 -50 73 -41 12 7 8 82 -7 116 -8
18 -35 52 -60 76 -49 46 -54 48 -181 57 -38 2 -83 5 -100 7 -16 1 -52 -1 -80
-6z m20 -397 c3 -5 1 -10 -4 -10 -6 0 -11 5 -11 10 0 6 2 10 4 10 3 0 8 -4 11
-10z m-45 -15 c0 -8 -4 -15 -9 -15 -13 0 -22 16 -14 24 11 11 23 6 23 -9z
m241 -5 c25 -14 10 -45 -27 -54 -35 -9 -39 -3 -24 34 13 33 21 36 51 20z"/>
<path d="M1610 2880 c0 -5 5 -10 10 -10 6 0 10 5 10 10 0 6 -4 10 -10 10 -5 0
-10 -4 -10 -10z"/>
<path d="M1274 2814 c-11 -23 -14 -38 -7 -42 6 -4 13 -23 16 -42 8 -51 26
-116 56 -195 l26 -70 3 40 c2 22 -4 82 -13 134 -10 51 -15 116 -13 143 4 40 2
51 -13 58 -29 16 -37 12 -55 -26z"/>
<path d="M1595 2840 c-4 -6 -3 -16 3 -22 6 -6 12 -6 17 2 4 6 3 16 -3 22 -6 6
-12 6 -17 -2z"/>
<path d="M3776 2747 c-15 -11 -16 -18 -5 -60 6 -27 10 -84 7 -132 -2 -47 -2
-85 2 -85 17 0 59 133 65 208 l8 82 -30 0 c-16 0 -37 -6 -47 -13z"/>
<path d="M3670 2458 c0 -59 12 -100 25 -87 8 9 -7 149 -16 149 -5 0 -9 -28 -9
-62z"/>
<path d="M2370 2439 c0 -5 -8 -13 -17 -16 -9 -4 -25 -15 -35 -25 -20 -20 -68
-24 -84 -8 -17 17 -39 2 -54 -38 -7 -20 -22 -49 -33 -63 -18 -26 -21 -67 -3
-61 5 2 19 -20 31 -49 14 -33 25 -47 29 -38 5 11 7 11 12 2 3 -7 14 -13 25
-13 20 0 26 -24 8 -35 -6 -4 -8 -13 -5 -20 3 -8 0 -16 -7 -18 -9 -3 -9 -9 0
-25 14 -23 9 -47 -15 -74 -12 -14 -18 -15 -29 -6 -11 9 -16 9 -23 -1 -4 -8
-13 -10 -21 -6 -9 6 -11 4 -6 -8 4 -10 0 -18 -11 -22 -21 -6 -52 -71 -51 -105
3 -63 20 -132 39 -158 17 -23 27 -27 51 -24 16 2 29 9 29 14 0 6 6 5 15 -2 12
-10 15 -10 15 1 0 10 3 10 12 1 15 -15 70 -16 85 -1 14 14 83 -25 83 -47 0 -8
5 -14 10 -14 6 0 19 -9 30 -20 11 -11 20 -24 20 -30 0 -5 5 -10 11 -10 6 0 9
-6 7 -12 -3 -7 -10 -13 -17 -13 -12 0 -31 -23 -31 -37 0 -14 23 -8 36 10 10
12 13 13 14 3 0 -11 3 -11 15 -1 11 9 15 9 15 1 0 -8 11 -6 32 5 17 9 49 16
70 16 32 -1 39 3 44 24 3 13 12 24 18 24 18 0 59 42 48 49 -5 3 -11 15 -13 26
-3 15 -13 20 -41 21 -21 1 -43 6 -50 12 -7 6 -42 13 -78 16 -70 6 -75 9 -84
49 -6 25 -4 27 23 27 16 0 42 5 57 10 21 9 31 8 42 -4 14 -13 17 -13 28 2 10
14 14 14 28 3 14 -12 19 -11 35 3 17 15 26 16 85 5 41 -8 73 -20 84 -32 12
-15 14 -21 5 -24 -7 -3 -13 -12 -13 -20 0 -11 4 -13 13 -6 18 15 73 23 83 14
5 -5 21 -11 35 -15 39 -9 54 13 39 59 -14 43 -33 54 -85 50 -34 -2 -50 4 -105
45 -90 64 -117 74 -195 66 -44 -4 -76 -2 -104 7 -48 17 -78 13 -138 -19 -24
-13 -50 -24 -57 -24 -8 0 -19 -7 -26 -15 -12 -14 -15 -14 -30 0 -9 8 -21 15
-27 15 -6 0 -16 7 -23 15 -10 11 -9 18 3 30 12 11 17 12 20 2 3 -6 6 -2 6 11
1 25 19 30 28 6 3 -8 12 -13 21 -9 8 3 20 1 27 -5 8 -6 22 -7 41 0 16 5 48 14
71 20 34 8 40 14 36 30 -3 11 -9 20 -14 20 -5 0 -9 7 -9 16 0 8 4 13 9 10 5
-4 12 7 16 24 4 16 11 30 17 30 5 0 16 7 24 15 9 8 24 15 35 15 20 0 23 -22
19 -127 -1 -36 2 -43 17 -43 11 0 24 5 31 12 14 14 16 68 3 68 -6 0 -9 25 -7
55 2 42 8 60 24 76 12 11 22 27 22 35 0 13 6 15 28 9 15 -4 36 -9 47 -10 11
-2 32 -6 47 -10 24 -6 28 -4 34 21 6 21 2 31 -16 46 -30 24 -47 23 -100 -9
-31 -18 -62 -27 -99 -29 -48 -2 -60 2 -103 34 -73 52 -136 42 -152 -24 l-7
-25 -29 23 c-21 17 -29 32 -29 56 -1 50 27 92 61 92 15 0 28 4 28 9 0 5 13 14
29 21 29 12 50 40 30 40 -6 0 -8 8 -5 18 5 13 -1 17 -24 19 -17 1 -30 -2 -30
-8z m111 -302 c-8 -8 -11 -7 -11 4 0 9 3 19 7 23 4 4 9 2 11 -4 3 -7 -1 -17
-7 -23z m-43 17 c12 -4 22 -13 22 -21 0 -12 -8 -14 -37 -8 -46 8 -55 13 -48
26 7 10 30 11 63 3z m-12 -441 c-7 -7 -26 7 -26 19 0 6 6 6 15 -2 9 -7 13 -15
11 -17z m174 -93 c0 -5 -4 -10 -10 -10 -5 0 -10 5 -10 10 0 6 5 10 10 10 6 0
10 -4 10 -10z"/>
<path d="M2240 2429 c0 -5 5 -7 10 -4 6 3 10 8 10 11 0 2 -4 4 -10 4 -5 0 -10
-5 -10 -11z"/>
<path d="M1351 2384 c0 -11 3 -14 6 -6 3 7 2 16 -1 19 -3 4 -6 -2 -5 -13z"/>
<path d="M1360 2299 c0 -5 5 -7 10 -4 6 3 10 8 10 11 0 2 -4 4 -10 4 -5 0 -10
-5 -10 -11z"/>
<path d="M2196 2084 c-7 -18 0 -34 15 -34 12 0 12 37 0 44 -5 3 -12 -1 -15
-10z"/>
<path d="M2170 2054 c0 -8 5 -12 10 -9 6 4 8 11 5 16 -9 14 -15 11 -15 -7z"/>
<path d="M3620 1985 c0 -8 7 -15 16 -15 14 0 14 3 4 15 -7 8 -14 15 -16 15 -2
0 -4 -7 -4 -15z"/>
<path d="M1502 1745 c0 -16 2 -22 5 -12 2 9 2 23 0 30 -3 6 -5 -1 -5 -18z"/>
<path d="M1517 1687 c-3 -9 -2 -30 4 -45 6 -15 17 -47 24 -72 8 -25 32 -97 54
-160 22 -63 40 -123 41 -134 0 -12 5 -16 15 -12 8 3 22 9 30 12 9 4 15 0 15
-9 0 -9 -10 -17 -22 -19 -14 -2 -22 -9 -21 -18 4 -33 31 -154 32 -142 1 15 21
16 21 1 0 -14 72 -79 82 -73 4 3 4 12 1 21 -4 11 -3 14 6 9 7 -5 10 -14 7 -22
-3 -7 -1 -16 3 -19 5 -3 11 2 15 10 7 20 36 19 36 0 0 -9 11 -20 24 -25 13 -5
27 -14 31 -20 3 -5 11 -8 16 -5 5 4 9 -3 9 -15 0 -23 31 -41 38 -21 3 9 7 9
18 0 8 -7 17 -9 20 -6 8 8 85 -33 91 -49 3 -8 14 -14 24 -14 10 0 19 -6 19
-14 0 -7 9 -16 20 -19 11 -3 20 0 20 6 0 7 4 6 9 -2 5 -8 16 -11 26 -7 9 3 26
0 38 -6 12 -7 32 -13 45 -13 13 0 26 -6 30 -12 7 -12 36 -12 47 -1 4 3 20 -1
36 -9 28 -14 31 -14 44 3 14 19 14 19 15 0 0 -15 5 -17 34 -12 20 4 37 2 41
-4 9 -14 55 -12 103 4 22 8 52 16 68 18 16 1 34 9 39 16 6 7 25 13 42 15 18 1
33 5 33 10 0 4 10 7 23 7 12 0 35 7 50 15 15 8 34 12 41 9 8 -3 16 4 19 16 4
14 12 20 25 18 20 -3 22 0 22 32 0 24 -45 28 -54 5 -7 -19 -53 -15 -67 6 -7
11 -10 9 -15 -9 -5 -17 -11 -21 -23 -16 -9 4 -27 7 -41 8 -32 1 -52 25 -36 41
8 9 16 9 30 1 14 -8 20 -8 24 3 2 7 13 22 23 32 13 13 19 33 19 60 0 37 -2 40
-16 28 -10 -8 -18 -9 -22 -2 -4 5 -14 9 -22 7 -8 -2 -27 -5 -42 -9 -15 -3 -29
-1 -32 4 -4 5 -18 5 -36 -2 -22 -8 -35 -9 -48 -1 -13 8 -19 8 -27 -3 -8 -11
-16 -11 -43 -1 -29 11 -35 11 -46 -5 -16 -21 -27 -22 -20 -2 4 9 -1 17 -12 21
-11 3 -27 10 -36 15 -24 12 -56 11 -60 -2 -2 -7 -14 -2 -30 12 -18 16 -38 23
-72 24 -25 0 -46 -2 -46 -6 0 -4 -12 -9 -27 -12 -28 -5 -63 19 -63 44 0 6 -9
1 -20 -12 l-20 -24 -18 21 c-12 14 -24 19 -37 14 -11 -4 -24 -6 -30 -4 -5 2
-28 6 -49 9 -48 7 -50 8 -41 34 4 12 12 18 21 14 8 -3 14 1 14 11 0 19 -5 20
-31 5 -11 -5 -17 -14 -14 -19 3 -6 0 -7 -8 -4 -8 3 -18 1 -22 -5 -15 -26 -37
-13 -85 49 -23 30 -38 46 -81 86 -9 8 -23 12 -32 8 -12 -4 -20 1 -26 17 -6 14
-10 18 -11 9 0 -8 -7 -1 -14 15 -7 17 -23 40 -34 53 -11 13 -18 30 -15 37 2 8
-2 24 -11 37 l-16 22 0 -24 c-1 -24 -1 -24 -15 -6 -8 11 -15 29 -15 41 0 11
-6 30 -14 40 -8 11 -18 41 -23 65 -6 32 -11 40 -16 27z m198 -467 c3 -5 1 -10
-4 -10 -6 0 -11 5 -11 10 0 6 2 10 4 10 3 0 8 -4 11 -10z m22 -12 c-3 -8 -6
-5 -6 6 -1 11 2 17 5 13 3 -3 4 -12 1 -19z m923 -142 c0 -2 -8 -10 -17 -17
-16 -13 -17 -12 -4 4 13 16 21 21 21 13z m-471 -54 c13 -1 30 3 37 9 11 9 14
8 14 -4 0 -12 32 -30 44 -24 1 1 10 -4 20 -12 9 -8 19 -11 22 -8 3 3 17 -6 31
-21 17 -19 23 -21 19 -9 -5 15 0 14 27 -6 17 -14 38 -22 46 -20 10 4 11 -1 6
-18 -10 -33 -13 -35 -34 -22 -10 6 -34 10 -54 9 -21 -1 -37 2 -37 7 0 5 -8 7
-17 6 -35 -3 -52 1 -67 17 -9 8 -25 16 -36 17 -11 1 -20 7 -20 15 0 9 -7 11
-22 7 -17 -6 -20 -4 -15 9 4 9 2 16 -3 16 -12 0 -13 53 -3 64 5 4 10 -1 13
-11 3 -10 16 -19 29 -21z m425 -140 c-1 -2 -17 -1 -34 3 -33 7 -30 20 5 27 17
3 39 -20 29 -30z"/>
<path d="M2300 1200 c0 -5 5 -10 11 -10 5 0 7 5 4 10 -3 6 -8 10 -11 10 -2 0
-4 -4 -4 -10z"/>
<path d="M1678 951 c-9 -22 -40 -77 -70 -123 -30 -46 -73 -112 -95 -146 -39
-61 -45 -65 -110 -88 -37 -13 -84 -32 -103 -43 -78 -43 -302 -131 -415 -164
-126 -37 -206 -56 -445 -107 -80 -16 -156 -33 -170 -36 -24 -6 -24 -7 28 -53
65 -59 184 -122 299 -158 l88 -27 548 -4 c301 -2 547 1 547 5 0 4 -7 33 -15
63 -23 84 -45 270 -45 378 0 53 -7 153 -15 222 -17 145 -19 258 -5 294 5 14 6
26 1 26 -4 0 -15 -18 -23 -39z"/>
<path d="M3082 978 c-7 -7 -20 -13 -30 -13 -10 0 -17 -8 -17 -20 0 -26 14 -25
49 3 19 15 26 26 20 32 -7 7 -14 6 -22 -2z"/>
<path d="M3387 954 c-3 -16 -9 -78 -12 -139 -8 -151 -41 -436 -65 -574 -11
-62 -20 -142 -20 -178 l0 -64 573 3 c563 4 573 5 647 27 104 32 224 92 295
148 l59 47 -54 17 c-30 10 -95 29 -145 44 -235 71 -335 109 -620 233 -88 38
-230 93 -315 122 -85 29 -163 60 -172 68 -18 15 -128 202 -128 218 0 5 -9 20
-19 33 l-19 24 -5 -29z"/>
<path d="M2920 960 c0 -5 5 -10 11 -10 5 0 7 5 4 10 -3 6 -8 10 -11 10 -2 0
-4 -4 -4 -10z"/>
<path d="M1821 801 c28 -38 152 -143 234 -197 33 -22 80 -54 105 -70 194 -132
238 -158 193 -116 l-32 30 31 24 c34 26 34 53 1 65 -10 4 -20 9 -23 12 -27 31
-104 76 -190 111 -58 23 -118 47 -135 55 -16 7 -45 19 -64 26 -19 7 -53 27
-75 44 -63 48 -71 50 -45 16z"/>
<path d="M3188 748 c-55 -67 -124 -138 -134 -138 -5 0 -36 -27 -69 -61 -56
-57 -216 -189 -229 -189 -3 0 -42 -29 -86 -65 -78 -63 -80 -65 -57 -79 55 -34
67 -31 172 61 55 47 125 114 155 149 30 35 96 108 145 163 83 91 155 182 155
196 0 15 -22 0 -52 -37z"/>
</g>
</svg>
