<?xml version="1.0" encoding="utf-8"?>
<svg xmlns="http://www.w3.org/2000/svg" style="margin: auto; background: none; display: block; shape-rendering: auto;" width="205" height="37" preserveAspectRatio="xMidYMid">
<style type="text/css">
  text {
    text-anchor: middle; font-size: 36px; opacity: 0;
  }
</style>
<g style="transform-origin:102.5px 18.5px;transform:scale(1)">
<g transform="translate(102.5,18.5)">
  <g transform="translate(0,0)"><g class="path" style="transform: scale(0.91); transform-origin: -85.21px -3.03152px; animation: 1s linear -0.612857s infinite normal forwards running breath-5f8e0724-d5da-49e6-9b38-d161380cbacc;"><path d="M14.40-24.88L14.40-24.88L14.40-24.88Q8.82-24.88 8.82-14.11L8.82-14.11L8.82-11.27L8.82-11.27Q8.82-6.16 10.30-3.26L10.30-3.26L10.30-3.26Q11.77-0.36 14.65-0.36L14.65-0.36L14.65-0.36Q18.61-0.36 21.92-8.06L21.92-8.06L22.57-8.06L22.32-0.04L21.92-0.04L21.92-0.04Q21.71-0.43 21.53-0.59L21.53-0.59L21.53-0.59Q21.35-0.76 21.01-0.76L21.01-0.76L21.01-0.76Q20.66-0.76 18.40-0.20L18.40-0.20L18.40-0.20Q16.13 0.36 13.79 0.36L13.79 0.36L13.79 0.36Q7.92 0.36 4.70-2.81L4.70-2.81L4.70-2.81Q1.48-5.98 1.48-12.33L1.48-12.33L1.48-12.33Q1.48-18.68 4.84-22.14L4.84-22.14L4.84-22.14Q8.21-25.60 13.90-25.60L13.90-25.60L13.90-25.60Q16.09-25.60 18.20-25.04L18.20-25.04L18.20-25.04Q20.30-24.48 20.66-24.48L20.66-24.48L20.66-24.48Q21.02-24.48 21.20-24.64L21.20-24.64L21.20-24.64Q21.38-24.80 21.60-25.20L21.60-25.20L22.00-25.20L22.28-17.39L21.64-17.39L21.64-17.39Q20.02-21.02 18.31-22.95L18.31-22.95L18.31-22.95Q16.60-24.88 14.40-24.88" fill="#ff0d0d" stroke="none" stroke-width="none" transform="translate(-97.2350263595581,9.588484840393066)" style="fill: rgb(255, 13, 13);"></path></g><g class="path" style="transform: scale(0.91); transform-origin: -63.659px 1.01849px; animation: 1s linear -0.565714s infinite normal forwards running breath-5f8e0724-d5da-49e6-9b38-d161380cbacc;"><path d="M34.31 0.36L34.31 0.36Q29.66 0.36 27.34-2.03L27.34-2.03L27.34-2.03Q25.02-4.43 25.02-8.69L25.02-8.69L25.02-8.69Q25.02-12.96 27.63-15.23L27.63-15.23L27.63-15.23Q30.24-17.50 34.27-17.50L34.27-17.50L34.27-17.50Q42.44-17.50 42.12-9.29L42.12-9.29L31.97-9.29L31.97-7.88L31.97-7.88Q31.97-4.36 32.87-2.56L32.87-2.56L32.87-2.56Q33.77-0.76 36.00-0.76L36.00-0.76L36.00-0.76Q40.18-0.76 41.47-5.22L41.47-5.22L42.12-5.11L42.12-5.11Q41.44-2.52 39.65-1.08L39.65-1.08L39.65-1.08Q37.87 0.36 34.31 0.36L34.31 0.36zM32.00-11.77L32.00-10.01L35.71-10.01L35.71-11.77L35.71-11.77Q35.71-14.69 35.37-15.75L35.37-15.75L35.37-15.75Q35.03-16.81 34.00-16.81L34.00-16.81L34.00-16.81Q32.98-16.81 32.49-15.68L32.49-15.68L32.49-15.68Q32.00-14.54 32.00-11.77L32.00-11.77" fill="#ff0d0d" stroke="none" stroke-width="none" transform="translate(-97.2350263595581,9.588484840393066)" style="fill: rgb(0, 226, 255);"></path></g><g class="path" style="transform: scale(0.91); transform-origin: -45.16px 0.838485px; animation: 1s linear -0.518571s infinite normal forwards running breath-5f8e0724-d5da-49e6-9b38-d161380cbacc;"><path d="M55.44-16.13L55.44-16.13L55.44-16.13Q54.11-16.13 53.10-14.40L53.10-14.40L53.10-14.40Q52.09-12.67 52.09-10.30L52.09-10.30L52.09-0.65L54.65-0.65L54.65 0L43.42 0L43.42-0.65L45.40-0.65L45.40-16.49L43.42-16.49L43.42-17.14L52.09-17.14L52.09-13.68L52.09-13.68Q52.56-15.52 53.89-16.51L53.89-16.51L53.89-16.51Q55.22-17.50 56.92-17.50L56.92-17.50L56.92-17.50Q58.61-17.50 59.67-16.54L59.67-16.54L59.67-16.54Q60.73-15.59 60.73-13.84L60.73-13.84L60.73-13.84Q60.73-12.10 59.94-11.16L59.94-11.16L59.94-11.16Q59.15-10.22 57.51-10.22L57.51-10.22L57.51-10.22Q55.87-10.22 55.10-11.30L55.10-11.30L55.10-11.30Q54.32-12.38 54.90-14.29L54.90-14.29L56.20-14.29L56.20-14.29Q57.10-16.13 55.44-16.13" fill="#ff0d0d" stroke="none" stroke-width="none" transform="translate(-97.2350263595581,9.588484840393066)" style="fill: rgb(14, 255, 0);"></path></g><g class="path" style="transform: scale(0.91); transform-origin: -29.175px -1.95152px; animation: 1s linear -0.471429s infinite normal forwards running breath-5f8e0724-d5da-49e6-9b38-d161380cbacc;"><path d="M63.04-5.15L63.04-5.15L63.04-16.49L61.06-16.49L61.06-17.14L63.04-17.14L63.04-21.78L69.73-23.44L69.73-17.14L74.41-17.14L74.41-16.49L69.73-16.49L69.73-4.36L69.73-4.36Q69.73-2.66 70.07-1.87L70.07-1.87L70.07-1.87Q70.42-1.08 71.50-1.08L71.50-1.08L71.50-1.08Q72.58-1.08 73.39-2.16L73.39-2.16L73.39-2.16Q74.20-3.24 74.45-5.11L74.45-5.11L75.06-5.04L75.06-5.04Q74.77-2.56 73.48-1.10L73.48-1.10L73.48-1.10Q72.18 0.36 69.19 0.36L69.19 0.36L69.19 0.36Q66.20 0.36 64.62-0.83L64.62-0.83L64.62-0.83Q63.04-2.02 63.04-5.15" fill="#ff0d0d" stroke="none" stroke-width="none" transform="translate(-97.2350263595581,9.588484840393066)" style="fill: rgb(255, 185, 0);"></path></g><g class="path" style="transform: scale(0.91); transform-origin: -16.435px -13.3815px; animation: 1s linear -0.424286s infinite normal forwards running breath-5f8e0724-d5da-49e6-9b38-d161380cbacc;"><path d="M80.71-19.62L80.71-19.62L80.71-19.62Q78.80-19.62 77.99-20.59L77.99-20.59L77.99-20.59Q77.18-21.56 77.18-23.00L77.18-23.00L77.18-23.00Q77.18-24.44 78.07-25.38L78.07-25.38L78.07-25.38Q78.95-26.32 80.75-26.32L80.75-26.32L80.75-26.32Q82.55-26.32 83.48-25.47L83.48-25.47L83.48-25.47Q84.42-24.62 84.42-23.06L84.42-23.06L84.42-23.06Q84.42-21.49 83.52-20.56L83.52-20.56L83.52-20.56Q82.62-19.62 80.71-19.62" fill="#ff0d0d" stroke="none" stroke-width="none" transform="translate(-97.2350263595581,9.588484840393066)" style="fill: rgb(242, 0, 255);"></path></g><g class="path" style="transform: scale(0.91); transform-origin: -16.54px 1.01849px; animation: 1s linear -0.377143s infinite normal forwards running breath-5f8e0724-d5da-49e6-9b38-d161380cbacc;"><path d="M75.28-16.49L75.28-17.14L84.10-17.14L84.10-0.65L86.11-0.65L86.11 0L75.42 0L75.42-0.65L77.40-0.65L77.40-16.49L75.28-16.49" fill="#ff0d0d" stroke="none" stroke-width="none" transform="translate(-97.2350263595581,9.588484840393066)" style="fill: rgb(255, 13, 13);"></path></g><g class="path" style="transform: scale(0.91); transform-origin: -2.30503px -4.32652px; animation: 1s linear -0.33s infinite normal forwards running breath-5f8e0724-d5da-49e6-9b38-d161380cbacc;"><path d="M97.74-27.22L97.74-27.22L97.74-27.22Q96.37-27.22 95.94-26.19L95.94-26.19L95.94-26.19Q95.51-25.16 95.51-22.90L95.51-22.90L95.51-17.14L100.26-17.14L100.26-16.49L95.51-16.49L95.51-0.65L99.90-0.65L99.90 0L86.83 0L86.83-0.65L88.81-0.65L88.81-16.49L86.72-16.49L86.72-17.14L88.81-17.14L88.81-17.28L88.81-17.28Q88.81-22.46 90.79-25.15L90.79-25.15L90.79-25.15Q92.77-27.83 97.42-27.83L97.42-27.83L97.42-27.83Q100.48-27.83 101.81-26.62L101.81-26.62L101.81-26.62Q103.14-25.42 103.14-23.83L103.14-23.83L103.14-23.83Q103.14-22.25 102.31-21.46L102.31-21.46L102.31-21.46Q101.48-20.66 100.12-20.66L100.12-20.66L100.12-20.66Q98.75-20.66 98.01-21.37L98.01-21.37L98.01-21.37Q97.27-22.07 97.27-22.99L97.27-22.99L97.27-22.99Q97.27-23.90 97.49-24.77L97.49-24.77L98.86-24.77L98.86-24.77Q99.58-27.22 97.74-27.22" fill="#ff0d0d" stroke="none" stroke-width="none" transform="translate(-97.2350263595581,9.588484840393066)" style="fill: rgb(0, 226, 255);"></path></g><g class="path" style="transform: scale(0.91); transform-origin: 8.76497px -13.3815px; animation: 1s linear -0.282857s infinite normal forwards running breath-5f8e0724-d5da-49e6-9b38-d161380cbacc;"><path d="M105.91-19.62L105.91-19.62L105.91-19.62Q104.00-19.62 103.19-20.59L103.19-20.59L103.19-20.59Q102.38-21.56 102.38-23.00L102.38-23.00L102.38-23.00Q102.38-24.44 103.27-25.38L103.27-25.38L103.27-25.38Q104.15-26.32 105.95-26.32L105.95-26.32L105.95-26.32Q107.75-26.32 108.68-25.47L108.68-25.47L108.68-25.47Q109.62-24.62 109.62-23.06L109.62-23.06L109.62-23.06Q109.62-21.49 108.72-20.56L108.72-20.56L108.72-20.56Q107.82-19.62 105.91-19.62" fill="#ff0d0d" stroke="none" stroke-width="none" transform="translate(-97.2350263595581,9.588484840393066)" style="fill: rgb(14, 255, 0);"></path></g><g class="path" style="transform: scale(0.91); transform-origin: 8.65997px 1.01849px; animation: 1s linear -0.235714s infinite normal forwards running breath-5f8e0724-d5da-49e6-9b38-d161380cbacc;"><path d="M100.48-16.49L100.48-17.14L109.30-17.14L109.30-0.65L111.31-0.65L111.31 0L100.62 0L100.62-0.65L102.60-0.65L102.60-16.49L100.48-16.49" fill="#ff0d0d" stroke="none" stroke-width="none" transform="translate(-97.2350263595581,9.588484840393066)" style="fill: rgb(255, 185, 0);"></path></g><g class="path" style="transform: scale(0.91); transform-origin: 23.13px 1.01849px; animation: 1s linear -0.188571s infinite normal forwards running breath-5f8e0724-d5da-49e6-9b38-d161380cbacc;"><path d="M122.11-16.85L122.11-16.85L122.11-16.85Q120.53-16.85 119.84-15.12L119.84-15.12L119.84-15.12Q119.16-13.39 119.16-9.40L119.16-9.40L119.16-7.52L119.16-7.52Q119.16-3.96 119.95-2.41L119.95-2.41L119.95-2.41Q120.74-0.86 122.87-0.86L122.87-0.86L122.87-0.86Q124.99-0.86 126.25-2.30L126.25-2.30L126.25-2.30Q127.51-3.74 127.87-5.58L127.87-5.58L128.52-5.51L128.52-5.51Q127.84-2.41 126.00-1.04L126.00-1.04L126.00-1.04Q124.13 0.36 120.85 0.36L120.85 0.36L120.85 0.36Q116.68 0.36 114.44-1.89L114.44-1.89L114.44-1.89Q112.21-4.14 112.21-8.48L112.21-8.48L112.21-8.48Q112.21-12.82 114.75-15.16L114.75-15.16L114.75-15.16Q117.29-17.50 121.82-17.50L121.82-17.50L121.82-17.50Q125.03-17.50 126.72-16.25L126.72-16.25L126.72-16.25Q128.41-15.01 128.41-13.14L128.41-13.14L128.41-13.14Q128.41-11.27 127.60-10.40L127.60-10.40L127.60-10.40Q126.79-9.54 125.37-9.54L125.37-9.54L125.37-9.54Q123.95-9.54 123.08-10.30L123.08-10.30L123.08-10.30Q122.22-11.05 122.22-12.53L122.22-12.53L122.22-12.53Q122.22-13.18 122.40-13.82L122.40-13.82L123.59-13.82L123.59-13.82Q123.84-14.54 123.84-15.12L123.84-15.12L123.84-15.12Q123.84-16.85 122.11-16.85" fill="#ff0d0d" stroke="none" stroke-width="none" transform="translate(-97.2350263595581,9.588484840393066)" style="fill: rgb(242, 0, 255);"></path></g><g class="path" style="transform: scale(0.91); transform-origin: 42.065px 1.01849px; animation: 1s linear -0.141429s infinite normal forwards running breath-5f8e0724-d5da-49e6-9b38-d161380cbacc;"><path d="M138.06-8.46L138.06-8.46L139.10-8.46L139.10-11.23L139.10-11.23Q139.10-14.65 138.73-15.82L138.73-15.82L138.73-15.82Q138.35-16.99 137.27-16.99L137.27-16.99L137.27-16.99Q136.62-16.99 136.10-16.65L136.10-16.65L136.10-16.65Q135.58-16.31 135.58-15.71L135.58-15.71L135.58-15.71Q135.58-15.12 135.79-14.51L135.79-14.51L136.69-14.51L136.69-14.51Q136.98-13.75 136.98-12.69L136.98-12.69L136.98-12.69Q136.98-11.63 136.08-10.85L136.08-10.85L136.08-10.85Q135.18-10.08 133.81-10.08L133.81-10.08L133.81-10.08Q130.72-10.08 130.72-13.07L130.72-13.07L130.72-13.07Q130.72-17.50 138.24-17.50L138.24-17.50L138.24-17.50Q142.52-17.50 144.16-16.04L144.16-16.04L144.16-16.04Q145.80-14.58 145.80-10.69L145.80-10.69L145.80-3.38L145.80-3.38Q145.80-1.51 146.84-1.51L146.84-1.51L146.84-1.51Q148.07-1.51 148.28-5.22L148.28-5.22L148.82-5.18L148.82-5.18Q148.68-2.02 147.64-0.83L147.64-0.83L147.64-0.83Q146.59 0.36 144.22 0.36L144.22 0.36L144.22 0.36Q139.90 0.36 139.25-2.30L139.25-2.30L139.25-2.30Q138.78-0.94 137.84-0.29L137.84-0.29L137.84-0.29Q136.91 0.36 135.11 0.36L135.11 0.36L135.11 0.36Q129.78 0.36 129.78-4.00L129.78-4.00L129.78-4.00Q129.78-6.55 131.81-7.51L131.81-7.51L131.81-7.51Q133.85-8.46 138.06-8.46zM136.62-4.03L136.62-4.03Q136.62-2.16 136.82-1.62L136.82-1.62L136.82-1.62Q137.02-1.08 137.57-1.08L137.57-1.08L137.57-1.08Q138.13-1.08 138.62-2.00L138.62-2.00L138.62-2.00Q139.10-2.92 139.10-4.54L139.10-4.54L139.10-7.88L138.85-7.88L138.85-7.88Q136.62-7.88 136.62-4.61L136.62-4.61L136.62-4.03" fill="#ff0d0d" stroke="none" stroke-width="none" transform="translate(-97.2350263595581,9.588484840393066)" style="fill: rgb(255, 13, 13);"></path></g><g class="path" style="transform: scale(0.91); transform-origin: 58.23px -1.95152px; animation: 1s linear -0.0942857s infinite normal forwards running breath-5f8e0724-d5da-49e6-9b38-d161380cbacc;"><path d="M150.44-5.15L150.44-5.15L150.44-16.49L148.46-16.49L148.46-17.14L150.44-17.14L150.44-21.78L157.14-23.44L157.14-17.14L161.82-17.14L161.82-16.49L157.14-16.49L157.14-4.36L157.14-4.36Q157.14-2.66 157.48-1.87L157.48-1.87L157.48-1.87Q157.82-1.08 158.90-1.08L158.90-1.08L158.90-1.08Q159.98-1.08 160.79-2.16L160.79-2.16L160.79-2.16Q161.60-3.24 161.86-5.11L161.86-5.11L162.47-5.04L162.47-5.04Q162.18-2.56 160.88-1.10L160.88-1.10L160.88-1.10Q159.59 0.36 156.60 0.36L156.60 0.36L156.60 0.36Q153.61 0.36 152.03-0.83L152.03-0.83L152.03-0.83Q150.44-2.02 150.44-5.15" fill="#ff0d0d" stroke="none" stroke-width="none" transform="translate(-97.2350263595581,9.588484840393066)" style="fill: rgb(0, 226, 255);"></path></g><g class="path" style="transform: scale(0.91); transform-origin: 74.331px 1.01849px; animation: 1s linear -0.0471429s infinite normal forwards running breath-5f8e0724-d5da-49e6-9b38-d161380cbacc;"><path d="M172.30 0.36L172.30 0.36Q167.65 0.36 165.33-2.03L165.33-2.03L165.33-2.03Q163.01-4.43 163.01-8.69L163.01-8.69L163.01-8.69Q163.01-12.96 165.62-15.23L165.62-15.23L165.62-15.23Q168.23-17.50 172.26-17.50L172.26-17.50L172.26-17.50Q180.43-17.50 180.11-9.29L180.11-9.29L169.96-9.29L169.96-7.88L169.96-7.88Q169.96-4.36 170.86-2.56L170.86-2.56L170.86-2.56Q171.76-0.76 173.99-0.76L173.99-0.76L173.99-0.76Q178.16-0.76 179.46-5.22L179.46-5.22L180.11-5.11L180.11-5.11Q179.42-2.52 177.64-1.08L177.64-1.08L177.64-1.08Q175.86 0.36 172.30 0.36L172.30 0.36zM169.99-11.77L169.99-10.01L173.70-10.01L173.70-11.77L173.70-11.77Q173.70-14.69 173.36-15.75L173.36-15.75L173.36-15.75Q173.02-16.81 171.99-16.81L171.99-16.81L171.99-16.81Q170.96-16.81 170.48-15.68L170.48-15.68L170.48-15.68Q169.99-14.54 169.99-11.77L169.99-11.77" fill="#ff0d0d" stroke="none" stroke-width="none" transform="translate(-97.2350263595581,9.588484840393066)" style="fill: rgb(14, 255, 0);"></path></g><g class="path" style="transform: scale(0.91); transform-origin: 91.855px 0.983485px; animation: 1s linear 0s infinite normal forwards running breath-5f8e0724-d5da-49e6-9b38-d161380cbacc;"><path d="M182.66 0.36L182.23 0.36L182.23-6.08L182.66-6.08L182.66-6.08Q183.60-2.95 185.18-1.69L185.18-1.69L185.18-1.69Q186.77-0.43 189.14-0.43L189.14-0.43L189.14-0.43Q192.82-0.43 192.82-2.77L192.82-2.77L192.82-2.77Q192.82-3.78 191.92-4.28L191.92-4.28L191.92-4.28Q190.51-5.08 188.32-5.51L188.32-5.51L188.32-5.51Q185.87-6.16 184.21-7.24L184.21-7.24L184.21-7.24Q182.23-8.53 182.23-11.34L182.23-11.34L182.23-11.34Q182.23-14.15 183.96-15.82L183.96-15.82L183.96-15.82Q185.69-17.50 188.57-17.50L188.57-17.50L188.57-17.50Q190.33-17.50 192.20-16.67L192.20-16.67L192.20-16.67Q192.89-16.38 193.25-16.38L193.25-16.38L193.25-16.38Q193.61-16.38 193.86-16.63L193.86-16.63L193.86-16.63Q194.11-16.88 194.47-17.57L194.47-17.57L194.87-17.57L194.87-12.06L194.44-12.06L194.44-12.06Q192.60-16.74 188.75-16.74L188.75-16.74L188.75-16.74Q187.06-16.74 186.23-16.15L186.23-16.15L186.23-16.15Q185.40-15.55 185.40-14.65L185.40-14.65L185.40-14.65Q185.40-14.11 185.65-13.81L185.65-13.81L185.65-13.81Q185.90-13.50 186.05-13.36L186.05-13.36L186.05-13.36Q186.19-13.21 186.52-13.05L186.52-13.05L186.52-13.05Q186.84-12.89 187.06-12.80L187.06-12.80L187.06-12.80Q187.27-12.71 187.72-12.56L187.72-12.56L187.72-12.56Q188.17-12.42 188.39-12.38L188.39-12.38L188.39-12.38Q190.84-11.77 191.92-11.32L191.92-11.32L191.92-11.32Q193.00-10.87 193.97-10.22L193.97-10.22L193.97-10.22Q195.95-8.86 195.95-5.81L195.95-5.81L195.95-5.81Q195.95-2.77 194.15-1.21L194.15-1.21L194.15-1.21Q192.35 0.36 189.22 0.36L189.22 0.36L189.22 0.36Q186.98 0.36 184.90-0.68L184.90-0.68L184.90-0.68Q184.46-0.97 184.21-0.97L184.21-0.97L184.21-0.97Q183.42-0.97 182.66 0.36L182.66 0.36" fill="#ff0d0d" stroke="none" stroke-width="none" transform="translate(-97.2350263595581,9.588484840393066)" style="fill: rgb(255, 185, 0);"></path></g></g>
</g>
</g>
<style id="breath-5f8e0724-d5da-49e6-9b38-d161380cbacc" data-anikit="">@keyframes breath-5f8e0724-d5da-49e6-9b38-d161380cbacc
{
  0% {
    animation-timing-function: cubic-bezier(0.9647,0.2413,-0.0705,0.7911);
    transform: scale(0.9099999999999999);
  }
  51% {
    animation-timing-function: cubic-bezier(0.9226,0.2631,-0.0308,0.7628);
    transform: scale(1.02994);
  }
  100% {
    transform: scale(0.9099999999999999);
  }
}</style></svg>