<?xml version="1.0" encoding="utf-8"?>
<svg xmlns="http://www.w3.org/2000/svg" style="margin: auto; background: none; display: block; shape-rendering: auto;" width="140" height="42" preserveAspectRatio="xMidYMid">
<style type="text/css">
  text {
    text-anchor: middle; font-size: 36px; opacity: 0;
  }
</style>
<g style="transform-origin:70px 21px;transform:scale(1)">
<g transform="translate(70,21)">
  <g transform="translate(0,0)"><g class="path" style="transform: scale(0.91); transform-origin: -46.205px -2.87788px; animation: 1s linear -0.565714s infinite normal forwards running breath-333aa2b1-464c-4786-92ee-f0803c1d9adb;"><path d="M14.40-24.88L14.40-24.88L14.40-24.88Q8.82-24.88 8.82-14.11L8.82-14.11L8.82-11.27L8.82-11.27Q8.82-6.16 10.30-3.26L10.30-3.26L10.30-3.26Q11.77-0.36 14.65-0.36L14.65-0.36L14.65-0.36Q18.61-0.36 21.92-8.06L21.92-8.06L22.57-8.06L22.32-0.04L21.92-0.04L21.92-0.04Q21.71-0.43 21.53-0.59L21.53-0.59L21.53-0.59Q21.35-0.76 21.01-0.76L21.01-0.76L21.01-0.76Q20.66-0.76 18.40-0.20L18.40-0.20L18.40-0.20Q16.13 0.36 13.79 0.36L13.79 0.36L13.79 0.36Q7.92 0.36 4.70-2.81L4.70-2.81L4.70-2.81Q1.48-5.98 1.48-12.33L1.48-12.33L1.48-12.33Q1.48-18.68 4.84-22.14L4.84-22.14L4.84-22.14Q8.21-25.60 13.90-25.60L13.90-25.60L13.90-25.60Q16.09-25.60 18.20-25.04L18.20-25.04L18.20-25.04Q20.30-24.48 20.66-24.48L20.66-24.48L20.66-24.48Q21.02-24.48 21.20-24.64L21.20-24.64L21.20-24.64Q21.38-24.80 21.60-25.20L21.60-25.20L22.00-25.20L22.28-17.39L21.64-17.39L21.64-17.39Q20.02-21.02 18.31-22.95L18.31-22.95L18.31-22.95Q16.60-24.88 14.40-24.88" fill="#fd3b3b" stroke="none" stroke-width="none" transform="translate(-58.22998046875,9.74211659158979)" style="fill: rgb(253, 59, 59);"></path></g><g class="path" style="transform: scale(0.91); transform-origin: -23.975px 1.17212px; animation: 1s linear -0.471429s infinite normal forwards running breath-333aa2b1-464c-4786-92ee-f0803c1d9adb;"><path d="M36.47-7.09L36.47-7.09L36.47-10.15L36.47-10.15Q36.47-13.64 36.09-15.25L36.09-15.25L36.09-15.25Q35.71-16.85 34.34-16.85L34.34-16.85L34.34-16.85Q33.55-16.85 33.07-16.40L33.07-16.40L33.07-16.40Q32.58-15.95 32.36-14.90L32.36-14.90L32.36-14.90Q32.04-13.28 32.04-9.97L32.04-9.97L32.04-7.16L32.04-7.16Q32.04-3.24 32.27-2.45L32.27-2.45L32.27-2.45Q32.51-1.66 32.76-1.15L32.76-1.15L32.76-1.15Q33.16-0.29 34.31-0.29L34.31-0.29L34.31-0.29Q35.71-0.29 36.14-1.91L36.14-1.91L36.14-1.91Q36.47-3.06 36.47-7.09zM34.24 0.36L34.24 0.36Q29.74 0.36 27.43-1.94L27.43-1.94L27.43-1.94Q25.13-4.25 25.13-8.55L25.13-8.55L25.13-8.55Q25.13-12.85 27.59-15.17L27.59-15.17L27.59-15.17Q30.06-17.50 34.52-17.50L34.52-17.50L34.52-17.50Q38.99-17.50 41.18-15.35L41.18-15.35L41.18-15.35Q43.38-13.21 43.38-8.82L43.38-8.82L43.38-8.82Q43.38 0.36 34.24 0.36L34.24 0.36" fill="#fd3b3b" stroke="none" stroke-width="none" transform="translate(-58.22998046875,9.74211659158979)" style="fill: rgb(0, 226, 255);"></path></g><g class="path" style="transform: scale(0.91); transform-origin: -3.54498px -3.57788px; animation: 1s linear -0.377143s infinite normal forwards running breath-333aa2b1-464c-4786-92ee-f0803c1d9adb;"><path d="M51.70-7.45L51.70-7.45Q51.70-3.67 52.09-2.43L52.09-2.43L52.09-2.43Q52.49-1.19 53.55-1.19L53.55-1.19L53.55-1.19Q54.61-1.19 55.39-2.12L55.39-2.12L55.39-2.12Q56.16-3.06 56.16-4.90L56.16-4.90L56.16-12.74L56.16-12.74Q56.16-14.29 55.55-15.37L55.55-15.37L55.55-15.37Q54.94-16.45 53.75-16.45L53.75-16.45L53.75-16.45Q52.56-16.45 52.13-14.87L52.13-14.87L52.13-14.87Q51.70-13.28 51.70-9.32L51.70-9.32L51.70-7.45zM64.62 0L56.63 0L56.23-2.52L56.23-2.52Q55.01 0.36 51.26 0.36L51.26 0.36L51.26 0.36Q48.17 0.36 46.46-1.87L46.46-1.87L46.46-1.87Q44.75-4.10 44.75-8.53L44.75-8.53L44.75-8.53Q44.75-17.50 51.88-17.50L51.88-17.50L51.88-17.50Q55.04-17.50 56.05-15.73L56.05-15.73L56.05-26.35L53.86-26.35L53.86-27.00L62.86-27.00L62.86-0.65L64.62-0.65L64.62 0" fill="#fd3b3b" stroke="none" stroke-width="none" transform="translate(-58.22998046875,9.74211659158979)" style="fill: rgb(73, 255, 0);"></path></g><g class="path" style="transform: scale(0.91); transform-origin: 12.71px -13.2279px; animation: 1s linear -0.282857s infinite normal forwards running breath-333aa2b1-464c-4786-92ee-f0803c1d9adb;"><path d="M70.85-19.62L70.85-19.62L70.85-19.62Q68.94-19.62 68.13-20.59L68.13-20.59L68.13-20.59Q67.32-21.56 67.32-23.00L67.32-23.00L67.32-23.00Q67.32-24.44 68.20-25.38L68.20-25.38L68.20-25.38Q69.08-26.32 70.88-26.32L70.88-26.32L70.88-26.32Q72.68-26.32 73.62-25.47L73.62-25.47L73.62-25.47Q74.56-24.62 74.56-23.06L74.56-23.06L74.56-23.06Q74.56-21.49 73.66-20.56L73.66-20.56L73.66-20.56Q72.76-19.62 70.85-19.62" fill="#fd3b3b" stroke="none" stroke-width="none" transform="translate(-58.22998046875,9.74211659158979)" style="fill: rgb(255, 0, 251);"></path></g><g class="path" style="transform: scale(0.91); transform-origin: 12.6px 1.17212px; animation: 1s linear -0.188571s infinite normal forwards running breath-333aa2b1-464c-4786-92ee-f0803c1d9adb;"><path d="M65.41-16.49L65.41-17.14L74.23-17.14L74.23-0.65L76.25-0.65L76.25 0L65.56 0L65.56-0.65L67.54-0.65L67.54-16.49L65.41-16.49" fill="#fd3b3b" stroke="none" stroke-width="none" transform="translate(-58.22998046875,9.74211659158979)" style="fill: rgb(245, 200, 10);"></path></g><g class="path" style="transform: scale(0.91); transform-origin: 29.63px 0.992117px; animation: 1s linear -0.0942857s infinite normal forwards running breath-333aa2b1-464c-4786-92ee-f0803c1d9adb;"><path d="M77.04-16.49L77.04-17.14L85.72-17.14L85.72-13.82L85.72-13.82Q86.29-15.48 87.48-16.49L87.48-16.49L87.48-16.49Q88.67-17.50 91.08-17.50L91.08-17.50L91.08-17.50Q96.66-17.50 96.66-11.48L96.66-11.48L96.66-0.65L98.68-0.65L98.68 0L88.49 0L88.49-0.65L89.96-0.65L89.96-12.35L89.96-12.35Q89.96-14.51 89.68-15.14L89.68-15.14L89.68-15.14Q89.39-15.77 88.63-15.77L88.63-15.77L88.63-15.77Q87.48-15.77 86.60-14.26L86.60-14.26L86.60-14.26Q85.72-12.74 85.72-10.58L85.72-10.58L85.72-0.65L87.26-0.65L87.26 0L77.04 0L77.04-0.65L79.02-0.65L79.02-16.49L77.04-16.49" fill="#fd3b3b" stroke="none" stroke-width="none" transform="translate(-58.22998046875,9.74211659158979)" style="fill: rgb(253, 59, 59);"></path></g><g class="path" style="transform: scale(0.91); transform-origin: 49.95px 3.15212px; animation: 1s linear 0s infinite normal forwards running breath-333aa2b1-464c-4786-92ee-f0803c1d9adb;"><path d="M113.58-19.01L113.58-19.01L114.59-19.62L114.59-19.62Q114.80-20.74 113.72-20.74L113.72-20.74L113.72-20.74Q112.18-20.74 112.18-18.36L112.18-18.36L112.18-18.36Q112.18-17.42 112.43-16.20L112.43-16.20L112.43-16.20Q115.16-14.36 115.16-11.50L115.16-11.50L115.16-11.50Q115.16-8.64 113.18-7.06L113.18-7.06L113.18-7.06Q111.20-5.47 107.82-5.47L107.82-5.47L107.82-5.47Q106.42-5.47 104.90-5.76L104.90-5.76L104.90-5.76Q103.32-4.75 103.32-4.25L103.32-4.25L103.32-4.25Q103.32-3.74 105.62-3.74L105.62-3.74L109.30-3.74L109.30-3.74Q117.47-3.74 117.47 2.12L117.47 2.12L117.47 2.12Q117.47 5.29 115.00 7.15L115.00 7.15L115.00 7.15Q112.54 9.00 107.32 9.00L107.32 9.00L107.32 9.00Q98.42 9.00 98.42 5.15L98.42 5.15L98.42 5.15Q98.42 3.06 101.20 2.27L101.20 2.27L103.36 3.24L103.36 3.24Q103.07 4.28 103.07 5.22L103.07 5.22L103.07 5.22Q103.07 8.32 107.68 8.32L107.68 8.32L107.68 8.32Q110.48 8.32 112.00 7.27L112.00 7.27L112.00 7.27Q113.51 6.23 113.51 4.68L113.51 4.68L113.51 4.68Q113.51 3.13 112.59 2.61L112.59 2.61L112.59 2.61Q111.67 2.09 108.94 2.09L108.94 2.09L105.44 2.09L105.44 2.09Q102.53 2.09 101.27 1.12L101.27 1.12L101.27 1.12Q100.01 0.14 100.01-1.28L100.01-1.28L100.01-1.28Q100.01-2.70 100.91-3.65L100.91-3.65L100.91-3.65Q101.81-4.61 104.11-6.01L104.11-6.01L104.11-6.01Q99.94-7.20 99.94-11.48L99.94-11.48L99.94-11.48Q99.94-14.18 101.88-15.84L101.88-15.84L101.88-15.84Q103.82-17.50 107.71-17.50L107.71-17.50L107.71-17.50Q110.05-17.50 111.71-16.60L111.71-16.60L111.71-16.60Q111.49-17.57 111.49-18.36L111.49-18.36L111.49-18.36Q111.49-20.38 112.57-21.28L112.57-21.28L112.57-21.28Q113.65-22.18 114.98-22.18L114.98-22.18L114.98-22.18Q116.32-22.18 117.13-21.47L117.13-21.47L117.13-21.47Q117.94-20.77 117.94-19.55L117.94-19.55L117.94-19.55Q117.94-18.32 117.29-17.73L117.29-17.73L117.29-17.73Q116.64-17.14 115.72-17.14L115.72-17.14L115.72-17.14Q114.80-17.14 114.21-17.62L114.21-17.62L114.21-17.62Q113.62-18.11 113.58-19.01zM105.95-12.28L105.95-12.28L105.95-10.33L105.95-10.33Q105.95-7.92 106.36-7.06L106.36-7.06L106.36-7.06Q106.78-6.19 107.62-6.19L107.62-6.19L107.62-6.19Q108.47-6.19 108.85-7.04L108.85-7.04L108.85-7.04Q109.22-7.88 109.22-10.51L109.22-10.51L109.22-12.28L109.22-12.28Q109.22-15.08 108.86-15.97L108.86-15.97L108.86-15.97Q108.50-16.85 107.66-16.85L107.66-16.85L107.66-16.85Q106.81-16.85 106.38-15.93L106.38-15.93L106.38-15.93Q105.95-15.01 105.95-12.28" fill="#fd3b3b" stroke="none" stroke-width="none" transform="translate(-58.22998046875,9.74211659158979)" style="fill: rgb(0, 226, 255);"></path></g></g>
</g>
</g>
<style id="breath-333aa2b1-464c-4786-92ee-f0803c1d9adb" data-anikit="">@keyframes breath-333aa2b1-464c-4786-92ee-f0803c1d9adb
{
  0% {
    animation-timing-function: cubic-bezier(0.9647,0.2413,-0.0705,0.7911);
    transform: scale(0.9099999999999999);
  }
  51% {
    animation-timing-function: cubic-bezier(0.9226,0.2631,-0.0308,0.7628);
    transform: scale(1.02994);
  }
  100% {
    transform: scale(0.9099999999999999);
  }
}</style></svg>